<svg width="1140" height="25" viewBox="0 0 1140 25" fill="none" xmlns="http://www.w3.org/2000/svg">
<g opacity="0.4" clip-path="url(#clip0_3_25)">
<path d="M1115.87 -1.36105L1140 25.639" stroke="black" stroke-width="4"/>
<path d="M1103.33 -1.36105L1127.45 25.639" stroke="black" stroke-width="4"/>
<path d="M1090.78 -1.36105L1114.91 25.639" stroke="black" stroke-width="4"/>
<path d="M1078.24 -1.36105L1102.36 25.639" stroke="black" stroke-width="4"/>
<path d="M1065.69 -1.36105L1089.82 25.639" stroke="black" stroke-width="4"/>
<path d="M1053.15 -1.36105L1077.27 25.639" stroke="black" stroke-width="4"/>
<path d="M1040.6 -1.36105L1064.73 25.639" stroke="black" stroke-width="4"/>
<path d="M1028.06 -1.36105L1052.18 25.639" stroke="black" stroke-width="4"/>
<path d="M1015.51 -1.36105L1039.64 25.639" stroke="black" stroke-width="4"/>
<path d="M1002.96 -1.36105L1027.09 25.639" stroke="black" stroke-width="4"/>
<path d="M990.419 -1.36105L1014.54 25.639" stroke="black" stroke-width="4"/>
<path d="M977.873 -1.36105L1002 25.639" stroke="black" stroke-width="4"/>
<path d="M965.328 -1.36105L989.454 25.639" stroke="black" stroke-width="4"/>
<path d="M952.782 -1.36105L976.908 25.639" stroke="black" stroke-width="4"/>
<path d="M940.236 -1.36105L964.362 25.639" stroke="black" stroke-width="4"/>
<path d="M927.691 -1.36105L951.817 25.639" stroke="black" stroke-width="4"/>
<path d="M915.145 -1.36105L939.271 25.639" stroke="black" stroke-width="4"/>
<path d="M902.6 -1.36105L926.726 25.639" stroke="black" stroke-width="4"/>
<path d="M890.054 -1.36105L914.18 25.639" stroke="black" stroke-width="4"/>
<path d="M877.509 -1.36105L901.635 25.639" stroke="black" stroke-width="4"/>
<path d="M864.963 -1.36105L889.089 25.639" stroke="black" stroke-width="4"/>
<path d="M852.417 -1.36105L876.544 25.639" stroke="black" stroke-width="4"/>
<path d="M839.872 -1.36105L863.998 25.639" stroke="black" stroke-width="4"/>
<path d="M827.326 -1.36105L851.452 25.639" stroke="black" stroke-width="4"/>
<path d="M814.781 -1.36105L838.907 25.639" stroke="black" stroke-width="4"/>
<path d="M802.235 -1.36105L826.361 25.639" stroke="black" stroke-width="4"/>
<path d="M789.69 -1.36105L813.816 25.639" stroke="black" stroke-width="4"/>
<path d="M777.144 -1.36105L801.27 25.639" stroke="black" stroke-width="4"/>
<path d="M764.599 -1.36105L788.725 25.639" stroke="black" stroke-width="4"/>
<path d="M752.053 -1.36105L776.179 25.639" stroke="black" stroke-width="4"/>
<path d="M739.508 -1.36105L763.634 25.639" stroke="black" stroke-width="4"/>
<path d="M726.962 -1.36105L751.088 25.639" stroke="black" stroke-width="4"/>
<path d="M714.417 -1.36105L738.543 25.639" stroke="black" stroke-width="4"/>
<path d="M701.871 -1.36105L725.997 25.639" stroke="black" stroke-width="4"/>
<path d="M689.326 -1.36105L713.452 25.639" stroke="black" stroke-width="4"/>
<path d="M676.78 -1.36105L700.906 25.639" stroke="black" stroke-width="4"/>
<path d="M664.235 -1.36105L688.361 25.639" stroke="black" stroke-width="4"/>
<path d="M651.689 -1.36105L675.815 25.639" stroke="black" stroke-width="4"/>
<path d="M639.394 -1.36105L663.52 25.639" stroke="black" stroke-width="4"/>
<path d="M626.848 -1.36105L650.974 25.639" stroke="black" stroke-width="4"/>
<path d="M614.303 -1.36105L638.429 25.639" stroke="black" stroke-width="4"/>
<path d="M601.757 -1.36105L625.883 25.639" stroke="black" stroke-width="4"/>
<path d="M589.211 -1.36105L613.338 25.639" stroke="black" stroke-width="4"/>
<path d="M576.666 -1.36105L600.792 25.639" stroke="black" stroke-width="4"/>
<path d="M564.12 -1.36105L588.246 25.639" stroke="black" stroke-width="4"/>
<path d="M551.575 -1.36105L575.701 25.639" stroke="black" stroke-width="4"/>
<path d="M539.029 -1.36105L563.155 25.639" stroke="black" stroke-width="4"/>
<path d="M526.484 -1.36105L550.61 25.639" stroke="black" stroke-width="4"/>
<path d="M513.938 -1.36105L538.064 25.639" stroke="black" stroke-width="4"/>
<path d="M501.393 -1.36105L525.519 25.639" stroke="black" stroke-width="4"/>
<path d="M488.847 -1.36105L512.973 25.639" stroke="black" stroke-width="4"/>
<path d="M476.302 -1.36105L500.428 25.639" stroke="black" stroke-width="4"/>
<path d="M463.756 -1.36105L487.882 25.639" stroke="black" stroke-width="4"/>
<path d="M451.211 -1.36105L475.337 25.639" stroke="black" stroke-width="4"/>
<path d="M438.665 -1.36105L462.791 25.639" stroke="black" stroke-width="4"/>
<path d="M426.119 -1.36105L450.246 25.639" stroke="black" stroke-width="4"/>
<path d="M413.574 -1.36105L437.7 25.639" stroke="black" stroke-width="4"/>
<path d="M401.028 -1.36105L425.154 25.639" stroke="black" stroke-width="4"/>
<path d="M388.483 -1.36105L412.609 25.639" stroke="black" stroke-width="4"/>
<path d="M375.937 -1.36105L400.063 25.639" stroke="black" stroke-width="4"/>
<path d="M363.392 -1.36105L387.518 25.639" stroke="black" stroke-width="4"/>
<path d="M350.846 -1.36105L374.972 25.639" stroke="black" stroke-width="4"/>
<path d="M338.301 -1.36105L362.427 25.639" stroke="black" stroke-width="4"/>
<path d="M325.755 -1.36105L349.881 25.639" stroke="black" stroke-width="4"/>
<path d="M313.21 -1.36105L337.336 25.639" stroke="black" stroke-width="4"/>
<path d="M300.664 -1.36105L324.79 25.639" stroke="black" stroke-width="4"/>
<path d="M288.119 -1.36105L312.245 25.639" stroke="black" stroke-width="4"/>
<path d="M275.573 -1.36105L299.699 25.639" stroke="black" stroke-width="4"/>
<path d="M263.027 -1.36105L287.154 25.639" stroke="black" stroke-width="4"/>
<path d="M250.482 -1.36105L274.608 25.639" stroke="black" stroke-width="4"/>
<path d="M237.936 -1.36105L262.062 25.639" stroke="black" stroke-width="4"/>
<path d="M225.391 -1.36105L249.517 25.639" stroke="black" stroke-width="4"/>
<path d="M212.845 -1.36105L236.971 25.639" stroke="black" stroke-width="4"/>
<path d="M200.3 -1.36105L224.426 25.639" stroke="black" stroke-width="4"/>
<path d="M187.754 -1.36105L211.88 25.639" stroke="black" stroke-width="4"/>
<path d="M175.209 -1.36105L199.335 25.639" stroke="black" stroke-width="4"/>
<path d="M175.638 -1.36105L199.764 25.639" stroke="black" stroke-width="4"/>
<path d="M163.092 -1.36105L187.218 25.639" stroke="black" stroke-width="4"/>
<path d="M150.547 -1.36105L174.673 25.639" stroke="black" stroke-width="4"/>
<path d="M138.001 -1.36105L162.127 25.639" stroke="black" stroke-width="4"/>
<path d="M125.455 -1.36105L149.582 25.639" stroke="black" stroke-width="4"/>
<path d="M112.91 -1.36105L137.036 25.639" stroke="black" stroke-width="4"/>
<path d="M100.364 -1.36105L124.49 25.639" stroke="black" stroke-width="4"/>
<path d="M87.8188 -1.36105L111.945 25.639" stroke="black" stroke-width="4"/>
<path d="M75.2732 -1.36105L99.3993 25.639" stroke="black" stroke-width="4"/>
<path d="M62.7277 -1.36105L86.8537 25.639" stroke="black" stroke-width="4"/>
<path d="M50.1823 -1.36105L74.3084 25.639" stroke="black" stroke-width="4"/>
<path d="M37.6368 -1.36105L61.7629 25.639" stroke="black" stroke-width="4"/>
<path d="M25.0912 -1.36105L49.2173 25.639" stroke="black" stroke-width="4"/>
<path d="M12.5456 -1.36105L36.6717 25.639" stroke="black" stroke-width="4"/>
<path d="M0 -1.36105L24.1261 25.639" stroke="black" stroke-width="4"/>
</g>
<defs>
<clipPath id="clip0_3_25">
<rect width="1140" height="25" fill="white"/>
</clipPath>
</defs>
</svg>
