<svg width="26" height="15" viewBox="0 0 26 15" fill="none" xmlns="http://www.w3.org/2000/svg">
<path d="M14.2555 14.8762C14.2555 14.8762 14.7175 14.8258 14.9541 14.5763C15.1708 14.3477 15.1632 13.9163 15.1632 13.9163C15.1632 13.9163 15.1344 11.9019 16.0873 11.6044C17.0264 11.3119 18.2321 13.5525 19.5118 14.4141C20.4784 15.0655 21.2121 14.9229 21.2121 14.9229L24.6316 14.8762C24.6316 14.8762 26.4196 14.768 25.5719 13.3878C25.5018 13.2747 25.0773 12.3664 23.0302 10.5007C20.8853 8.54778 21.1733 8.86365 23.7551 5.48498C25.3278 3.42754 25.9563 2.17145 25.7597 1.63435C25.5732 1.1206 24.4162 1.25703 24.4162 1.25703L20.5673 1.28038C20.5673 1.28038 20.2818 1.24228 20.0702 1.36642C19.8636 1.48809 19.7296 1.772 19.7296 1.772C19.7296 1.772 19.1211 3.36363 18.3085 4.71805C16.5944 7.57437 15.9095 7.72554 15.629 7.54856C14.9767 7.13437 15.1395 5.88688 15.1395 5.00073C15.1395 2.23167 15.5677 1.07759 14.3068 0.778928C13.8886 0.679374 13.5806 0.614234 12.5101 0.603173C11.1365 0.589653 9.97456 0.608089 9.31595 0.923956C8.87772 1.13412 8.53965 1.60362 8.74625 1.63066C9.00042 1.66385 9.57639 1.78306 9.8819 2.19111C10.2763 2.71837 10.2625 3.90072 10.2625 3.90072C10.2625 3.90072 10.4892 7.16018 9.7329 7.56454C9.21453 7.8423 8.50334 7.27571 6.97453 4.68363C6.19197 3.35625 5.60098 1.88876 5.60098 1.88876C5.60098 1.88876 5.48704 1.61468 5.28295 1.4672C5.03628 1.28898 4.69196 1.23368 4.69196 1.23368L1.03458 1.25703C1.03458 1.25703 0.484912 1.27178 0.283325 1.50653C0.104275 1.71424 0.269552 2.14564 0.269552 2.14564C0.269552 2.14564 3.1331 8.7223 6.37603 12.0371C9.34976 15.0753 12.7254 14.8762 12.7254 14.8762H14.2555Z" fill="black"/>
</svg>
