<svg width="24" height="24" viewBox="0 0 24 24" fill="none" xmlns="http://www.w3.org/2000/svg">
<path fill-rule="evenodd" clip-rule="evenodd" d="M0.897307 22.9991L5.38669 21.8214L5.81983 22.0785C7.64101 23.1592 9.72862 23.7311 11.8571 23.7319H11.8619C18.3997 23.7319 23.7207 18.4107 23.7234 11.8702C23.7246 8.70077 22.492 5.72065 20.2525 3.47855C18.013 1.23646 15.0348 0.00109848 11.8666 0C5.32375 0 0.00259714 5.32067 1.00859e-06 11.8606C-0.000917981 14.1019 0.626193 16.2847 1.81356 18.1732L2.09559 18.622L0.897307 22.9991ZM18.5632 14.9436C18.8119 15.0638 18.9799 15.145 19.0516 15.2647C19.1407 15.4134 19.1407 16.1273 18.8437 16.9604C18.5464 17.7933 17.1219 18.5536 16.4367 18.6559C15.8224 18.7477 15.045 18.7861 14.1908 18.5146C13.6728 18.3503 13.0087 18.1309 12.1579 17.7634C8.81499 16.32 6.55585 13.08 6.12888 12.4676C6.09897 12.4247 6.07805 12.3947 6.06638 12.3791L6.0635 12.3753C5.87479 12.1235 4.61034 10.4364 4.61034 8.69034C4.61034 7.0478 5.41718 6.18687 5.78857 5.79058C5.81401 5.76343 5.83741 5.73846 5.85837 5.71557C6.18522 5.35857 6.57156 5.26932 6.80927 5.26932C7.04696 5.26932 7.28494 5.27151 7.4927 5.28195C7.51834 5.28324 7.545 5.28308 7.57257 5.28292C7.78037 5.2817 8.03944 5.28018 8.295 5.89407C8.39332 6.1303 8.53717 6.48052 8.68889 6.84989C8.99574 7.59692 9.33478 8.42233 9.39443 8.54177C9.48359 8.72027 9.54301 8.92843 9.42415 9.16652C9.40631 9.20222 9.38981 9.23591 9.37404 9.2681C9.28477 9.45036 9.2191 9.58442 9.06758 9.76134C9.008 9.8309 8.94641 9.9059 8.88483 9.9809C8.76216 10.1303 8.63949 10.2797 8.53268 10.3861C8.35417 10.5639 8.16834 10.7568 8.37634 11.1138C8.58435 11.4708 9.3 12.6385 10.3601 13.584C11.4996 14.6005 12.49 15.0301 12.992 15.2478C13.09 15.2903 13.1694 15.3248 13.2277 15.3539C13.5841 15.5325 13.7922 15.5026 14.0002 15.2647C14.2082 15.0267 14.8916 14.2234 15.1293 13.8665C15.367 13.5096 15.6048 13.5691 15.9316 13.688C16.2585 13.8071 18.0116 14.6697 18.3682 14.8482C18.4378 14.883 18.5029 14.9145 18.5632 14.9436Z" fill="black"/>
</svg>
